<?xml version="1.0" standalone="no"?>
<!DOCTYPE svg PUBLIC "-//W3C//DTD SVG 20010904//EN"
 "http://www.w3.org/TR/2001/REC-SVG-20010904/DTD/svg10.dtd">
<svg version="1.0" xmlns="http://www.w3.org/2000/svg"
 width="204.000000pt" height="192.000000pt" viewBox="0 0 204.000000 192.000000"
 preserveAspectRatio="xMidYMid meet">

<g transform="translate(0.000000,192.000000) scale(0.100000,-0.100000)"
fill="#000000" stroke="none">
<path d="M475 1759 c-115 -27 -215 -113 -257 -219 -42 -109 -32 -252 23 -332
11 -14 19 -29 19 -33 0 -4 -15 -37 -32 -74 -30 -60 -33 -74 -33 -161 0 -82 4
-103 26 -150 55 -116 165 -199 287 -219 l52 -8 0 603 0 604 -22 -1 c-13 -1
-41 -5 -63 -10z"/>
<path d="M719 1648 c-1 -68 -2 -134 -3 -148 l-1 -25 328 -3 327 -2 0 150 0
150 -325 0 -325 0 -1 -122z"/>
<path d="M717 1313 c-4 -3 -7 -71 -7 -150 l0 -143 590 0 590 0 0 150 0 150
-583 0 c-321 0 -587 -3 -590 -7z"/>
<path d="M719 858 c-1 -4 -1 -236 0 -268 l1 -25 325 0 325 0 0 148 0 147 -325
0 c-179 0 -325 -1 -326 -2z"/>
<path d="M1520 486 l0 -377 48 6 c113 15 242 110 290 213 24 51 27 68 27 162
-1 98 -3 109 -32 165 -57 110 -165 188 -277 201 l-56 7 0 -377z"/>
<path d="M712 263 l3 -148 328 -3 327 -2 0 150 0 150 -330 0 -331 0 3 -147z"/>
</g>
</svg>
